<svg width="32" height="32" viewBox="0 0 32 32" fill="none" xmlns="http://www.w3.org/2000/svg">
<mask id="mask0_5117_181" style="mask-type:luminance" maskUnits="userSpaceOnUse" x="0" y="0" width="32" height="32">
<path d="M31.5165 0H0V32H31.5165V0Z" fill="white"/>
</mask>
<g mask="url(#mask0_5117_181)">
<path d="M17.3661 5.48027L18.5817 4.26467C20.9688 1.87754 24.8551 1.81846 27.256 4.19183C28.1657 5.09314 28.7703 6.25679 28.9847 7.51931C29.1992 8.78185 29.0127 10.0798 28.4516 11.231C28.1824 11.7809 28.0918 12.4011 28.1921 13.005C28.2926 13.6089 28.5791 14.1664 29.0118 14.5995C29.8074 13.8021 30.4379 12.8558 30.8676 11.8146C31.2973 10.7733 31.5177 9.65766 31.5161 8.53126C31.5144 7.40488 31.2911 6.28983 30.8584 5.24984C30.4257 4.20983 29.7924 3.26527 28.9946 2.4701C25.6374 -0.868148 20.1881 -0.801717 16.8403 2.54591L5.25355 14.1323L4.30102 13.1798C1.87341 10.7522 1.85794 6.78403 4.32837 4.39956C5.24282 3.51966 6.40784 2.94526 7.66264 2.75566C8.91744 2.56606 10.2001 2.7706 11.3337 3.34105C11.8512 3.60619 12.4391 3.70104 13.0137 3.61205C13.5882 3.52307 14.1199 3.2548 14.5329 2.84555L14.5624 2.81617C14.5716 2.80704 14.5789 2.79618 14.5839 2.7842C14.5889 2.77224 14.5914 2.75941 14.5914 2.74645C14.5914 2.7335 14.5889 2.72066 14.5839 2.70871C14.5789 2.69675 14.5716 2.68588 14.5624 2.67674C12.9677 1.12205 10.8306 0.248786 8.60345 0.241726C6.37629 0.234667 4.23373 1.09437 2.62916 2.63891C-0.827269 5.97561 -0.814918 11.5242 2.58226 14.9214L14.1656 26.5047L12.9351 27.7351C10.548 30.1223 6.66157 30.1813 4.26085 27.808C3.35112 26.9067 2.74657 25.743 2.5321 24.4805C2.31765 23.218 2.50403 21.92 3.0651 20.7688C3.33427 20.2189 3.42499 19.5987 3.3246 18.9949C3.22419 18.3909 2.93766 17.8334 2.50505 17.4003C1.70949 18.1977 1.07885 19.144 0.64914 20.1852C0.219431 21.2265 -0.000916701 22.3421 0.000680002 23.4686C0.00227671 24.5949 0.225787 25.71 0.658447 26.7499C1.09111 27.79 1.72443 28.7346 2.52224 29.5297C5.87925 32.8681 11.3287 32.8018 14.6765 29.454L26.2783 17.8521L27.2344 18.8083C29.6215 21.1954 29.6806 25.0817 27.3073 27.4824C26.406 28.3923 25.2423 28.9967 23.9798 29.2113C22.7173 29.4258 21.4193 29.2393 20.2681 28.6781C19.7181 28.4088 19.0975 28.318 18.4934 28.4187C17.8893 28.5192 17.3316 28.806 16.8984 29.239C17.6959 30.0346 18.6422 30.6653 19.6834 31.095C20.7247 31.5246 21.8403 31.745 22.9668 31.7435C24.0931 31.7418 25.2082 31.5182 26.2481 31.0856C27.2882 30.6529 28.2327 30.0196 29.0279 29.2218C32.3663 25.8648 32.2999 20.4153 28.9522 17.0676L17.3661 5.48027ZM15.8953 24.7742L6.98372 15.8627L15.6358 7.21075L24.5473 16.1223L15.8953 24.7742Z" fill="black"/>
</g>
</svg>
